# xmcd
#
# Track frame offsets: 
#        150
#        44103
#        64458
#        86023
#        109978
#        138970
#        160460
#        191313
#        212095
#        233195
#        252955
#        290268
#
# Disc length: 4205 seconds
#
# Revision: 28
# Processed by: cddbd v1.5.2PL0 Copyright (c) Steve Scherf et al.
# Submitted via: ExactAudioCopy v1.0b3
#
DISCID=b6106b0c
DTITLE=Supertramp - Some Things Never Change
DYEAR=1997
DGENRE=Pop
TTITLE0=It's A Hard World
TTITLE1=You Win, I Lose
TTITLE2=Get Your Act Together
TTITLE3=Live To Love You
TTITLE4=Some Things Never Change
TTITLE5=Listen To Me Please
TTITLE6=Sooner Or Later
TTITLE7=Help Me Down That Road
TTITLE8=And The Light
TTITLE9=Give Me A Chance
TTITLE10=C'est What?
TTITLE11=Where There's A Will
EXTD=
EXTT0=
EXTT1=
EXTT2=
EXTT3=
EXTT4=
EXTT5=
EXTT6=
EXTT7=
EXTT8=
EXTT9=
EXTT10=
EXTT11=
PLAYORDER=
